HIERARCHY
ROOT Hips
{
	OFFSET 0.000000 0.000000 0.000000 
	CHANNELS 6 Xposition Yposition Zposition Zrotation Yrotation Xrotation
	JOINT LeftUpLeg
	{
		OFFSET 1.363060 -1.794630 0.839290 
		CHANNELS 3 Zrotation Yrotation Xrotation
		JOINT LeftLeg
		{
			OFFSET 2.448110 -6.726130 0.000000 
			CHANNELS 3 Zrotation Yrotation Xrotation
			JOINT LeftFoot
			{
				OFFSET 2.562200 -7.039590 0.000000 
				CHANNELS 3 Zrotation Yrotation Xrotation
				JOINT LeftToeBase
				{
					OFFSET 0.157640 -0.433110 2.322550 
					CHANNELS 3 Zrotation Yrotation Xrotation
					End Site
					{
						OFFSET 0.000000 0.000000 0.000000 
					}
				}
			}
		}
	}
	JOINT RightUpLeg
	{
		OFFSET -1.305520 -1.794630 0.839290 
		CHANNELS 3 Zrotation Yrotation Xrotation
		JOINT RightLeg
		{
			OFFSET -2.542530 -6.985550 0.000000 
			CHANNELS 3 Zrotation Yrotation Xrotation
			JOINT RightFoot
			{
				OFFSET -2.568260 -7.056230 0.000000 
				CHANNELS 3 Zrotation Yrotation Xrotation
				JOINT RightToeBase
				{
					OFFSET -0.164730 -0.452590 2.363150 
					CHANNELS 3 Zrotation Yrotation Xrotation
					End Site
					{
						OFFSET 0.000000 0.000000 0.000000 
					}
				}
			}
		}
	}
	JOINT Spine
	{
		OFFSET 0.028270 2.035590 -0.193380 
		CHANNELS 3 Zrotation Yrotation Xrotation
		JOINT Spine1
		{
			OFFSET 0.056720 2.048850 -0.042750 
			CHANNELS 3 Zrotation Yrotation Xrotation
			JOINT Neck1
			{
				OFFSET -0.054170 1.746240 0.172020 
				CHANNELS 3 Zrotation Yrotation Xrotation
				JOINT Head
				{
					OFFSET 0.104070 1.761360 -0.123970 
					CHANNELS 3 Zrotation Yrotation Xrotation
					End Site
					{
						OFFSET 0.000000 0.000000 0.000000 
					}
				}
			}
			JOINT LeftArm
			{
				OFFSET 3.362410 1.200890 -0.311210 
				CHANNELS 3 Zrotation Yrotation Xrotation
				JOINT LeftForeArm
				{
					OFFSET 4.983000 -0.000000 -0.000000 
					CHANNELS 3 Zrotation Yrotation Xrotation
					JOINT LeftHand
					{
						OFFSET 3.483560 -0.000000 -0.000000 
						CHANNELS 3 Zrotation Yrotation Xrotation
						JOINT LeftHandIndex1
						{
							OFFSET 0.715260 -0.000000 -0.000000 
							CHANNELS 3 Zrotation Yrotation Xrotation
							End Site
							{
								OFFSET 0.000000 0.000000 0.000000 
							}
						}
					}
				}
			}
			JOINT RightArm
			{
				OFFSET -3.136600 1.374050 -0.404650 
				CHANNELS 3 Zrotation Yrotation Xrotation
				JOINT RightForeArm
				{
					OFFSET -5.241900 -0.000000 -0.000000 
					CHANNELS 3 Zrotation Yrotation Xrotation
					JOINT RightHand
					{
						OFFSET -3.444170 -0.000000 -0.000000 
						CHANNELS 3 Zrotation Yrotation Xrotation
						JOINT RightHandIndex1
						{
							OFFSET -0.622530 -0.000000 -0.000000 
							CHANNELS 3 Zrotation Yrotation Xrotation
							End Site
							{
								OFFSET 0.000000 0.000000 0.000000 
							}
						}
					}
				}
			}
		}
	}
}
MOTION
Frames: 18
Frame Time: 0.041667
9.863722 17.939325 26.746664 -177.880848 12.018961 -176.369041 -18.372319 -10.422858 -8.509384 -2.275411 8.198744 23.751164 -3.819066 13.829047 -10.338907 2.374800 -9.606700 -27.712100 26.177557 16.639259 -4.083349 2.070604 -7.363949 22.894724 3.260557 -14.576173 -10.955897 -0.431000 4.213200 -11.677100 4.208386 1.318111 6.628165 -4.897697 0.671385 -13.825004 16.038326 0.423948 0.416460 3.406300 -0.021500 1.035600 -88.428790 11.591183 20.957493 24.785767 -24.304893 -6.093311 1.814574 0.124939 13.364462 -7.125000 0.000000 0.000000 85.317290 -9.334936 21.457747 -25.255992 28.414002 -7.302962 0.819168 -0.445609 18.730968 7.125000 0.000000 0.000000 
9.860815 17.926999 26.742943 -177.817026 12.117497 -176.276135 -18.294603 -9.991340 -8.973164 -2.190299 8.352604 24.164438 -3.668718 13.458505 -10.459099 2.469300 -9.781800 -28.273000 26.177285 16.377206 -4.516233 1.997157 -7.526829 23.312806 3.152128 -14.261326 -11.143831 -0.471900 4.405700 -12.221000 4.147745 1.354192 6.744351 -4.980150 0.676036 -13.895871 15.871260 0.453234 0.365762 3.331200 -0.008600 1.037700 -88.362158 11.430528 20.476725 24.514762 -24.011772 -5.959821 1.840127 0.083461 14.241317 -7.125000 0.000000 0.000000 85.266264 -9.243898 21.315802 -25.172900 28.314381 -7.246314 0.822131 -0.451356 18.788383 7.125000 0.000000 0.000000 
9.856745 17.912814 26.739222 -177.824441 12.167616 -176.164275 -18.235952 -9.550066 -9.486697 -2.083620 8.547216 24.663841 -3.428107 12.855965 -10.490051 2.420100 -9.691200 -27.982300 26.178708 16.108684 -4.941826 1.914380 -7.702966 23.774748 3.043152 -13.950015 -11.343881 -0.500800 4.537000 -12.592500 3.446841 1.652615 6.360715 -5.129080 0.774421 -14.190673 15.605924 0.256693 0.119988 3.116900 -0.126500 0.917600 -87.811939 11.551688 20.871752 24.315362 -23.780563 -5.867344 1.853440 0.056567 14.891262 -7.125000 0.000000 0.000000 85.737731 -9.533416 20.635370 -25.154847 28.299736 -7.219053 0.819709 -0.446560 18.843685 7.125000 0.000000 0.000000 
9.856280 17.899790 26.739919 -177.794093 12.100161 -176.116469 -18.239434 -9.035507 -10.066853 -1.948772 8.751652 25.255866 -3.151671 12.153737 -10.519161 2.379800 -9.616000 -27.741900 26.086592 15.853731 -5.455554 1.821836 -7.897877 24.268513 2.954661 -13.684175 -11.458199 -0.516500 4.606200 -12.788800 4.206224 1.335850 6.972034 -5.015369 0.679012 -14.009181 15.621034 0.733679 -0.590709 3.233400 0.060600 0.690700 -88.379474 11.083574 19.721090 24.124856 -23.598980 -5.774551 1.876035 0.012621 15.733836 -7.125000 0.000000 0.000000 84.949384 -9.142836 21.447468 -25.099591 28.217720 -7.190335 0.827093 -0.460543 18.606668 7.125000 0.000000 0.000000 
9.858606 17.885488 26.748408 -177.769967 11.976361 -175.959259 -18.175179 -8.483343 -10.825675 -1.805392 8.991162 25.885238 -2.953916 11.642352 -10.429359 2.568400 -9.961200 -28.851300 26.065439 15.659314 -6.061028 1.724004 -8.118602 24.809517 2.898781 -13.542211 -11.593716 -0.510600 4.580500 -12.715800 4.241887 1.202356 7.262154 -4.982538 0.630788 -13.991839 15.478780 0.924214 -1.048132 3.178200 0.127900 0.555800 -88.339479 10.677256 19.300389 23.905722 -23.356225 -5.655655 1.885252 -0.029383 16.444396 -7.125000 0.000000 0.000000 84.799432 -8.936049 21.560575 -25.106430 28.225006 -7.187142 0.830295 -0.462927 18.638052 7.125000 0.000000 0.000000 
9.860582 17.865256 26.759338 -177.717881 11.828685 -175.766045 -18.054788 -8.006401 -11.618032 -1.652771 9.252704 26.549783 -2.775650 11.176782 -10.279346 2.840300 -10.432000 -30.387200 26.100674 15.450136 -6.682777 1.618776 -8.351426 25.399035 2.748147 -13.135201 -11.940981 -0.438100 4.247400 -11.773800 3.863600 1.223105 7.355493 -5.040715 0.622298 -14.082534 15.404811 0.898676 -1.101502 3.079900 0.117800 0.562300 -87.924702 10.436006 19.516365 23.754483 -23.181785 -5.580470 1.889087 -0.043908 16.850461 -7.125000 0.000000 0.000000 85.068825 -8.829117 21.037340 -25.068480 28.190955 -7.150163 0.832482 -0.462635 18.954727 7.125000 0.000000 0.000000 
9.860466 17.842466 26.763873 -177.689968 11.744306 -175.626619 -18.012498 -7.584640 -12.307130 -1.488673 9.532822 27.290655 -2.558024 10.657360 -10.402070 3.049800 -10.775300 -31.525700 26.104600 15.189009 -7.263842 1.501391 -8.596680 26.037114 2.579014 -12.684413 -12.350390 -0.415000 4.135200 -11.457500 3.678279 1.271404 7.099101 -5.079453 0.625307 -14.380005 15.037542 0.801323 -1.422751 2.882600 0.045800 0.438800 -87.726338 10.543889 19.740576 23.731435 -23.166892 -5.584851 1.893654 -0.034073 17.048256 -7.125000 0.000000 0.000000 85.204686 -8.938314 20.725157 -25.077599 28.217350 -7.156415 0.828000 -0.458525 18.968543 7.125000 0.000000 0.000000 
9.858954 17.820605 26.764687 -177.600747 11.675559 -175.405385 -17.957026 -7.176150 -13.014639 -1.308517 9.833727 28.099014 -2.306953 10.077228 -10.661796 3.135700 -10.911600 -31.982400 26.158370 14.921846 -7.950508 1.376527 -8.878883 26.721941 2.531063 -12.609951 -12.578247 -0.514400 4.597300 -12.763300 3.916082 1.275201 6.314278 -5.103841 0.598319 -14.903114 14.987333 0.847167 -1.099473 2.863500 0.089700 0.510300 -87.844333 10.916109 19.779031 23.755317 -23.201031 -5.603467 1.888820 -0.020528 17.236568 -7.125000 0.000000 0.000000 85.022722 -9.343256 20.923644 -25.136193 28.304210 -7.218892 0.818045 -0.448196 18.627573 7.125000 0.000000 0.000000 
9.857094 17.791420 26.770966 -177.470783 11.507953 -175.234587 -17.861395 -6.800108 -13.797202 -1.104145 10.139047 28.950773 -2.051705 9.453504 -10.753240 3.188800 -10.994600 -32.261600 26.203885 14.594453 -8.771539 1.231057 -9.183302 27.480214 2.428014 -12.345628 -12.803244 -0.548800 4.745700 -13.184600 4.352470 1.129128 6.953619 -5.070186 0.560386 -14.703950 14.734923 1.030637 -1.676427 2.802900 0.147900 0.360600 -87.956534 10.339117 19.710342 23.692328 -23.144137 -5.577115 1.888146 0.003197 17.324906 -7.125000 0.000000 0.000000 84.611791 -8.837819 21.023888 -25.020545 28.187672 -7.186595 0.821846 -0.449847 18.495204 7.125000 0.000000 0.000000 
9.854420 17.757350 26.779803 -177.308859 11.368520 -175.005854 -17.735176 -6.429200 -14.614534 -0.886871 10.464762 29.844227 -1.798113 8.843092 -10.862989 3.219700 -11.042500 -32.423300 26.306290 14.312054 -9.600631 1.067522 -9.515790 28.320001 2.246302 -11.854025 -13.132733 -0.486700 4.473500 -12.412600 4.556927 1.049861 7.071665 -5.132432 0.518826 -14.776907 14.701231 1.195647 -2.084372 2.801800 0.209300 0.242300 -87.953094 10.094405 19.854703 23.675625 -23.140991 -5.582950 1.882081 0.056798 17.153803 -7.125000 0.000000 0.000000 84.443391 -8.585836 21.021299 -24.859039 27.998512 -7.085748 0.829893 -0.457962 18.558925 7.125000 0.000000 0.000000 
9.852327 17.723397 26.788872 -177.163398 11.261379 -174.725606 -17.624414 -6.152700 -15.436701 -0.664780 10.804128 30.764675 -1.565834 8.308901 -11.077533 3.196800 -11.007100 -32.303800 26.418245 14.087865 -10.479603 0.887385 -9.881917 29.237017 2.116981 -11.540060 -13.446148 -0.473200 4.411800 -12.238100 4.672236 1.027554 6.890400 -5.215902 0.488596 -14.979410 14.598601 1.290769 -2.406626 2.761000 0.239700 0.136500 -87.945413 10.089834 20.211463 23.827786 -23.318439 -5.652814 1.854286 0.109989 16.760810 -7.125000 0.000000 0.000000 84.299334 -8.560316 21.197882 -24.811870 27.931238 -7.031294 0.835830 -0.462139 18.383153 7.125000 0.000000 0.000000 
9.851861 17.688863 26.799221 -177.104618 11.187821 -174.480529 -17.606088 -5.938954 -16.223486 -0.431224 11.147100 31.706548 -1.270846 7.620821 -11.318915 3.117400 -10.882700 -31.885300 26.444032 13.905989 -11.386313 0.692772 -10.262647 30.202030 1.987240 -11.240590 -13.828030 -0.515100 4.600000 -12.771100 4.743057 1.012707 6.826893 -5.224021 0.476542 -15.181175 14.286994 1.356675 -2.724129 2.634700 0.257000 0.041700 -87.958385 10.055453 20.514631 24.055186 -23.585480 -5.757455 1.822822 0.156224 16.368431 -7.125000 0.000000 0.000000 84.151738 -8.499467 21.360400 -24.817780 27.927840 -7.002360 0.838127 -0.467075 18.096249 7.125000 0.000000 0.000000 
9.851396 17.656770 26.804570 -177.083970 11.173527 -174.295892 -17.642199 -5.709001 -16.965734 -0.174284 11.496863 32.697101 -0.937030 6.824354 -11.524324 2.968700 -10.644200 -31.088900 26.439862 13.813307 -12.238338 0.481376 -10.652538 31.219612 1.846185 -10.933254 -14.308820 -0.534600 4.685100 -13.012500 4.777393 0.988029 7.014183 -5.199365 0.471316 -15.302192 14.052429 1.463532 -2.879253 2.536900 0.310400 0.030700 -87.939939 9.838221 20.747224 24.168453 -23.734979 -5.829840 1.803751 0.220198 15.887329 -7.125000 0.000000 0.000000 84.040401 -8.245195 21.332756 -24.693864 27.783102 -6.912402 0.842463 -0.476299 18.046773 7.125000 0.000000 0.000000 
9.850117 17.621073 26.808058 -177.074498 11.106535 -174.095069 -17.697534 -5.503920 -17.775441 0.102726 11.868943 33.750657 -0.618921 6.068471 -11.759035 2.896800 -10.526100 -30.697600 26.415495 13.701376 -13.156971 0.249346 -11.069301 32.313262 1.736091 -10.742805 -14.812361 -0.537100 4.695900 -13.043200 4.855273 0.925314 7.199066 -5.158365 0.454191 -15.377383 14.010737 1.584205 -2.994067 2.525900 0.373900 0.031500 -87.920793 9.601467 21.139021 24.274812 -23.888605 -5.927231 1.780187 0.323455 14.993242 -7.125000 0.000000 0.000000 83.800488 -7.923138 21.424427 -24.504844 27.586558 -6.837557 0.849659 -0.474652 18.141663 7.125000 0.000000 0.000000 
9.847908 17.571073 26.817942 -177.039871 10.929704 -173.904560 -17.724838 -5.377870 -18.634374 0.392992 12.263003 34.864107 -0.387382 5.548965 -12.085449 2.960300 -10.630500 -31.043500 26.438944 13.578688 -14.107920 -0.000114 -11.507678 33.473686 1.644406 -10.652583 -15.407235 -0.552300 4.760600 -13.226900 4.955809 0.858132 7.301699 -5.144779 0.433345 -15.515184 14.143954 1.774745 -3.422166 2.593200 0.451300 -0.101000 -87.892323 9.453061 21.670938 24.472495 -24.151688 -6.076052 1.734949 0.440775 13.845241 -7.125000 0.000000 0.000000 83.525641 -7.698117 21.586626 -24.394795 27.482287 -6.810575 0.852500 -0.470512 18.145460 7.125000 0.000000 0.000000 
9.845001 17.511307 26.835035 -176.973131 10.674923 -173.727089 -17.711651 -5.400396 -19.470186 0.705710 12.669835 36.023728 -0.120612 4.936709 -12.421797 2.852000 -10.451500 -30.451400 26.522829 13.527212 -15.042991 -0.263992 -11.960172 34.679502 1.607359 -10.742871 -15.954546 -0.556900 4.780100 -13.282400 5.101618 0.772346 7.291474 -5.131755 0.398286 -15.789567 14.159538 2.049017 -4.002813 2.609900 0.561900 -0.297900 -87.855844 9.309421 22.131876 24.679160 -24.406980 -6.195412 1.683213 0.514035 12.691157 -7.125000 0.000000 0.000000 83.299464 -7.576435 21.777353 -24.375264 27.459224 -6.782523 0.850566 -0.477812 17.932455 7.125000 0.000000 0.000000 
9.842327 17.453982 26.852825 -176.983900 10.393498 -173.529232 -17.789899 -5.536356 -20.286875 1.019432 13.085640 37.208410 0.060406 4.554685 -12.829831 2.805900 -10.374000 -30.196600 26.519501 13.417670 -16.041247 -0.542763 -12.418288 35.905871 1.597636 -10.883508 -16.368569 -0.598800 4.953800 -13.777000 5.253897 0.668030 7.052886 -5.042536 0.354556 -16.196009 13.808322 2.227685 -4.393009 2.467400 0.632700 -0.442700 -87.881694 9.153678 22.486008 24.801856 -24.557334 -6.259758 1.641785 0.556800 11.739864 -7.125000 0.000000 0.000000 83.011432 -7.312643 22.084235 -24.098444 27.148301 -6.631789 0.853851 -0.486527 17.523750 7.125000 0.000000 0.000000 
9.840350 17.398401 26.865267 -176.935818 10.052384 -173.268921 -17.816636 -5.704008 -21.098547 1.330072 13.492599 38.371621 0.190186 4.322660 -13.300769 2.965500 -10.638900 -31.071600 26.564389 13.225149 -17.082344 -0.835135 -12.877857 37.151790 1.470222 -10.666257 -16.874983 -0.575800 4.859300 -13.507600 5.458840 0.581520 6.667622 -4.972316 0.305007 -16.623010 13.375676 2.292000 -4.452396 2.279800 0.665600 -0.468800 -87.888197 9.095717 23.129323 24.900333 -24.670411 -6.316886 1.598490 0.599974 10.651170 -7.125000 0.000000 0.000000 82.746695 -7.285159 22.284423 -24.014953 27.077906 -6.607686 0.855117 -0.480428 17.346482 7.125000 0.000000 0.000000 
